{
  "accessors": [
    {
      "bufferView": 2,
      "componentType": 5126,
      "count": 65532,
      "max": [
        0.03208500146865845,
        0.016860999166965485,
        0.014057000167667866
      ],
      "min": [
        -0.030873000621795654,
        0.004021000117063522,
        -0.021793000400066376
      ],
      "type": "VEC3"
    },
    {
      "bufferView": 2,
      "byteOffset": 786384,
      "componentType": 5126,
      "count": 65532,
      "max": [
        0.9999854564666748,
        0.9999990463256836,
        0.9997145533561707
      ],
      "min": [
        -0.9995912909507751,
        -0.9999963045120239,
        -0.9996721148490906
      ],
      "type": "VEC3"
    },
    {
      "bufferView": 1,
      "componentType": 5126,
      "count": 65532,
      "max": [
        0.9593369960784912,
        0.9980469942092896
      ],
      "min": [
        0.0019529999699443579,
        0.0019529999699443579
      ],
      "type": "VEC2"
    },
    {
      "bufferView": 0,
      "componentType": 5125,
      "count": 361404,
      "type": "SCALAR"
    },
    {
      "bufferView": 2,
      "byteOffset": 1572768,
      "componentType": 5126,
      "count": 21685,
      "max": [
        0.03207499906420708,
        0.015107999555766582,
        0.013945000246167183
      ],
      "min": [
        -0.0307839997112751,
        0.004044999834150076,
        -0.021765999495983124
      ],
      "type": "VEC3"
    },
    {
      "bufferView": 2,
      "byteOffset": 1832988,
      "componentType": 5126,
      "count": 21685,
      "max": [
        0.9970895648002625,
        0.978308379650116,
        0.9658517837524414
      ],
      "min": [
        -0.9998026490211487,
        -0.9990933537483215,
        -0.9961649775505066
      ],
      "type": "VEC3"
    },
    {
      "bufferView": 1,
      "byteOffset": 524256,
      "componentType": 5126,
      "count": 21685,
      "max": [
        0.9900500178337097,
        0.9932780265808105
      ],
      "min": [
        0.003911000210791826,
        0.025698000565171242
      ],
      "type": "VEC2"
    },
    {
      "bufferView": 0,
      "byteOffset": 1445616,
      "componentType": 5125,
      "count": 81372,
      "type": "SCALAR"
    },
    {
      "bufferView": 2,
      "byteOffset": 2093208,
      "componentType": 5126,
      "count": 24206,
      "max": [
        0.019533999264240265,
        0.013441000133752823,
        -0.06051599979400635
      ],
      "min": [
        -0.019533999264240265,
        -0.000506000011228025,
        -0.07078699767589569
      ],
      "type": "VEC3"
    },
    {
      "bufferView": 2,
      "byteOffset": 2383680,
      "componentType": 5126,
      "count": 24206,
      "max": [
        0.9999606609344482,
        0.9996593594551086,
        0.9972763657569885
      ],
      "min": [
        -0.999961256980896,
        -0.9996305108070374,
        -0.9999996423721313
      ],
      "type": "VEC3"
    },
    {
      "bufferView": 1,
      "byteOffset": 697736,
      "componentType": 5126,
      "count": 24206,
      "max": [
        0.9952759742736816,
        0.9980469942092896
      ],
      "min": [
        0.0019529999699443579,
        0.0019529999699443579
      ],
      "type": "VEC2"
    },
    {
      "bufferView": 0,
      "byteOffset": 1771104,
      "componentType": 5125,
      "count": 143124,
      "type": "SCALAR"
    },
    {
      "bufferView": 2,
      "byteOffset": 2674152,
      "componentType": 5126,
      "count": 35042,
      "max": [
        0.013232000172138214,
        -0.00814600009471178,
        0.002592999953776598
      ],
      "min": [
        -0.013220000080764294,
        -0.011458000168204308,
        -0.00380200007930398
      ],
      "type": "VEC3"
    },
    {
      "bufferView": 2,
      "byteOffset": 3094656,
      "componentType": 5126,
      "count": 35042,
      "max": [
        0.9999774694442749,
        0.9998309016227722,
        0.9983595013618469
      ],
      "min": [
        -0.999873161315918,
        -0.9999914169311523,
        -0.9999750852584839
      ],
      "type": "VEC3"
    },
    {
      "bufferView": 1,
      "byteOffset": 891384,
      "componentType": 5126,
      "count": 35042,
      "max": [
        0.6815310120582581,
        0.9980469942092896
      ],
      "min": [
        0.0019529999699443579,
        0.0019529999699443579
      ],
      "type": "VEC2"
    },
    {
      "bufferView": 0,
      "byteOffset": 2343600,
      "componentType": 5125,
      "count": 209160,
      "type": "SCALAR"
    },
    {
      "bufferView": 2,
      "byteOffset": 3515160,
      "componentType": 5126,
      "count": 8109,
      "max": [
        0.001088000019080937,
        -0.014205999672412872,
        -0.004513000138103962
      ],
      "min": [
        -0.001088000019080937,
        -0.01498700026422739,
        -0.005876999814063311
      ],
      "type": "VEC3"
    },
    {
      "bufferView": 2,
      "byteOffset": 3612468,
      "componentType": 5126,
      "count": 8109,
      "max": [
        0.9982293844223022,
        0.9999837875366211,
        0.9977181553840637
      ],
      "min": [
        -0.9982293844223022,
        -0.9999984502792358,
        -0.9997732043266296
      ],
      "type": "VEC3"
    },
    {
      "bufferView": 1,
      "byteOffset": 1171720,
      "componentType": 5126,
      "count": 8109,
      "max": [
        0.9474999904632568,
        0.9980469942092896
      ],
      "min": [
        0.0019529999699443579,
        0.0019529999699443579
      ],
      "type": "VEC2"
    },
    {
      "bufferView": 0,
      "byteOffset": 3180240,
      "componentType": 5125,
      "count": 48348,
      "type": "SCALAR"
    },
    {
      "bufferView": 2,
      "byteOffset": 3709776,
      "componentType": 5126,
      "count": 8145,
      "max": [
        0.0061599998734891415,
        -0.0005619999719783664,
        -0.007213999982923269
      ],
      "min": [
        -0.006767000071704388,
        -0.014473999850451946,
        -0.019690999761223793
      ],
      "type": "VEC3"
    },
    {
      "bufferView": 2,
      "byteOffset": 3807516,
      "componentType": 5126,
      "count": 8145,
      "max": [
        0.9999973773956299,
        1.0,
        0.9999634027481079
      ],
      "min": [
        -0.9998979568481445,
        -0.9989372491836548,
        -0.9999704360961914
      ],
      "type": "VEC3"
    },
    {
      "bufferView": 1,
      "byteOffset": 1236592,
      "componentType": 5126,
      "count": 8145,
      "max": [
        0.8660590052604675,
        0.9980469942092896
      ],
      "min": [
        0.0019529999699443579,
        0.0019529999699443579
      ],
      "type": "VEC2"
    },
    {
      "bufferView": 0,
      "byteOffset": 3373632,
      "componentType": 5125,
      "count": 48384,
      "type": "SCALAR"
    },
    {
      "bufferView": 2,
      "byteOffset": 3905256,
      "componentType": 5126,
      "count": 65532,
      "max": [
        0.01943499967455864,
        0.03283900022506714,
        0.016690000891685486
      ],
      "min": [
        -0.026209000498056412,
        -0.022007999941706657,
        -0.06596300005912781
      ],
      "type": "VEC3"
    },
    {
      "bufferView": 2,
      "byteOffset": 4691640,
      "componentType": 5126,
      "count": 65532,
      "max": [
        0.999495804309845,
        0.9999425411224365,
        0.9914504885673523
      ],
      "min": [
        -0.9999637603759766,
        -0.999998927116394,
        -0.9999940395355225
      ],
      "type": "VEC3"
    },
    {
      "bufferView": 1,
      "byteOffset": 1301752,
      "componentType": 5126,
      "count": 65532,
      "max": [
        0.9449149966239929,
        0.6309750080108643
      ],
      "min": [
        0.025752000510692596,
        0.014945999719202518
      ],
      "type": "VEC2"
    },
    {
      "bufferView": 0,
      "byteOffset": 3567168,
      "componentType": 5125,
      "count": 361380,
      "type": "SCALAR"
    },
    {
      "bufferView": 2,
      "byteOffset": 5478024,
      "componentType": 5126,
      "count": 65532,
      "max": [
        0.026221999898552895,
        0.03280699998140335,
        0.01690400019288063
      ],
      "min": [
        -0.02595599927008152,
        -0.022218000143766403,
        -0.06596700102090836
      ],
      "type": "VEC3"
    },
    {
      "bufferView": 2,
      "byteOffset": 6264408,
      "componentType": 5126,
      "count": 65532,
      "max": [
        0.999994158744812,
        0.9996783137321472,
        0.9999024868011475
      ],
      "min": [
        -0.9999825954437256,
        -0.999998927116394,
        -0.9999868869781494
      ],
      "type": "VEC3"
    },
    {
      "bufferView": 1,
      "byteOffset": 1826008,
      "componentType": 5126,
      "count": 65532,
      "max": [
        0.9449790120124817,
        0.9624590277671814
      ],
      "min": [
        0.0019529999699443579,
        0.0019529999699443579
      ],
      "type": "VEC2"
    },
    {
      "bufferView": 0,
      "byteOffset": 5012688,
      "componentType": 5125,
      "count": 353433,
      "type": "SCALAR"
    },
    {
      "bufferView": 2,
      "byteOffset": 7050792,
      "componentType": 5126,
      "count": 13884,
      "max": [
        0.025709999725222588,
        0.03046800009906292,
        0.016637999564409256
      ],
      "min": [
        -0.02541700005531311,
        -0.022244999185204506,
        -0.06571400165557861
      ],
      "type": "VEC3"
    },
    {
      "bufferView": 2,
      "byteOffset": 7217400,
      "componentType": 5126,
      "count": 13884,
      "max": [
        0.9998552799224854,
        0.9080022573471069,
        0.9887266159057617
      ],
      "min": [
        -0.999954104423523,
        -0.9999821186065674,
        -0.999843418598175
      ],
      "type": "VEC3"
    },
    {
      "bufferView": 1,
      "byteOffset": 2350264,
      "componentType": 5126,
      "count": 13884,
      "max": [
        0.941008985042572,
        0.9980469942092896
      ],
      "min": [
        0.01723499968647957,
        0.01054100040346384
      ],
      "type": "VEC2"
    },
    {
      "bufferView": 0,
      "byteOffset": 6426420,
      "componentType": 5125,
      "count": 43521,
      "type": "SCALAR"
    },
    {
      "bufferView": 2,
      "byteOffset": 7384008,
      "componentType": 5126,
      "count": 15977,
      "max": [
        0.003240999998524785,
        0.05109899863600731,
        -0.026700999587774277
      ],
      "min": [
        -0.07234600186347961,
        0.02647400088608265,
        -0.05776999890804291
      ],
      "type": "VEC3"
    },
    {
      "bufferView": 2,
      "byteOffset": 7575732,
      "componentType": 5126,
      "count": 15977,
      "max": [
        0.9950072169303894,
        0.997797966003418,
        0.9999655485153198
      ],
      "min": [
        -0.9903009533882141,
        -0.9999706745147705,
        -0.9999167919158936
      ],
      "type": "VEC3"
    },
    {
      "bufferView": 1,
      "byteOffset": 2461336,
      "componentType": 5126,
      "count": 15977,
      "max": [
        0.7661939859390259,
        0.9980469942092896
      ],
      "min": [
        0.0019529999699443579,
        0.0019529999699443579
      ],
      "type": "VEC2"
    },
    {
      "bufferView": 0,
      "byteOffset": 6600504,
      "componentType": 5125,
      "count": 94464,
      "type": "SCALAR"
    },
    {
      "bufferView": 2,
      "byteOffset": 7767456,
      "componentType": 5126,
      "count": 15879,
      "max": [
        0.04296699911355972,
        0.03135799989104271,
        0.02806999906897545
      ],
      "min": [
        -0.018133999779820442,
        -0.012357000261545181,
        -0.01227600034326315
      ],
      "type": "VEC3"
    },
    {
      "bufferView": 2,
      "byteOffset": 7958004,
      "componentType": 5126,
      "count": 15879,
      "max": [
        0.9997366070747375,
        0.9990420341491699,
        0.9999676942825317
      ],
      "min": [
        -0.9996290802955627,
        -0.9996204972267151,
        -0.9998043179512024
      ],
      "type": "VEC3"
    },
    {
      "bufferView": 1,
      "byteOffset": 2589152,
      "componentType": 5126,
      "count": 15879,
      "max": [
        0.9753159880638123,
        0.9980469942092896
      ],
      "min": [
        0.0019529999699443579,
        0.0019529999699443579
      ],
      "type": "VEC2"
    },
    {
      "bufferView": 0,
      "byteOffset": 6978360,
      "componentType": 5125,
      "count": 93696,
      "type": "SCALAR"
    }
  ],
  "asset": {
    "extras": {
      "author": "Rafa (https://sketchfab.com/rafaeowo)",
      "license": "CC-BY-4.0 (http://creativecommons.org/licenses/by/4.0/)",
      "source": "https://sketchfab.com/3d-models/pikachu-wearing-ashs-hat-4d0f4d0f53ad4f389a8024a88a17fffc",
      "title": "Pikachu Wearing Ash's Hat"
    },
    "generator": "Sketchfab-13.37.1",
    "version": "2.0"
  },
  "bufferViews": [
    {
      "buffer": 0,
      "byteLength": 7353144,
      "name": "floatBufferViews",
      "target": 34963
    },
    {
      "buffer": 0,
      "byteLength": 2716184,
      "byteOffset": 7353144,
      "byteStride": 8,
      "name": "floatBufferViews",
      "target": 34962
    },
    {
      "buffer": 0,
      "byteLength": 8148552,
      "byteOffset": 10069328,
      "byteStride": 12,
      "name": "floatBufferViews",
      "target": 34962
    }
  ],
  "buffers": [
    {
      "byteLength": 18217880,
      "uri": "scene.bin"
    }
  ],
  "images": [
    {
      "uri": "textures/PM3D_Sphere3D1_baseColor.png"
    },
    {
      "uri": "textures/PM3D_Sphere3D1_1_baseColor.png"
    },
    {
      "uri": "textures/PM3D_Sphere3D1_2_baseColor.png"
    },
    {
      "uri": "textures/PM3D_Sphere3D1_3_baseColor.png"
    },
    {
      "uri": "textures/PM3D_Sphere3D1_4_baseColor.png"
    },
    {
      "uri": "textures/PolySphere_baseColor.png"
    },
    {
      "uri": "textures/Tail_baseColor.png"
    },
    {
      "uri": "textures/material_baseColor.png"
    }
  ],
  "materials": [
    {
      "doubleSided": true,
      "name": "PM3D_Sphere3D1",
      "pbrMetallicRoughness": {
        "baseColorTexture": {
          "index": 0
        },
        "metallicFactor": 0.0,
        "roughnessFactor": 0.6
      }
    },
    {
      "doubleSided": true,
      "name": "PM3D_Sphere3D1_1",
      "pbrMetallicRoughness": {
        "baseColorTexture": {
          "index": 1
        },
        "metallicFactor": 0.0,
        "roughnessFactor": 0.6
      }
    },
    {
      "doubleSided": true,
      "name": "PM3D_Sphere3D1_2",
      "pbrMetallicRoughness": {
        "baseColorTexture": {
          "index": 2
        },
        "metallicFactor": 0.0,
        "roughnessFactor": 0.6
      }
    },
    {
      "doubleSided": true,
      "name": "PM3D_Sphere3D1_3",
      "pbrMetallicRoughness": {
        "baseColorTexture": {
          "index": 3
        },
        "metallicFactor": 0.0,
        "roughnessFactor": 0.6
      }
    },
    {
      "doubleSided": true,
      "name": "PM3D_Sphere3D1_4",
      "pbrMetallicRoughness": {
        "baseColorTexture": {
          "index": 4
        },
        "metallicFactor": 0.0,
        "roughnessFactor": 0.6
      }
    },
    {
      "doubleSided": true,
      "name": "PolySphere",
      "pbrMetallicRoughness": {
        "baseColorTexture": {
          "index": 5
        },
        "metallicFactor": 0.0,
        "roughnessFactor": 0.6
      }
    },
    {
      "doubleSided": true,
      "name": "Tail",
      "pbrMetallicRoughness": {
        "baseColorTexture": {
          "index": 6
        },
        "metallicFactor": 0.0,
        "roughnessFactor": 0.6
      }
    },
    {
      "doubleSided": true,
      "name": "material",
      "pbrMetallicRoughness": {
        "baseColorTexture": {
          "index": 7
        },
        "metallicFactor": 0.0,
        "roughnessFactor": 0.6
      }
    }
  ],
  "meshes": [
    {
      "name": "Object_0",
      "primitives": [
        {
          "attributes": {
            "NORMAL": 1,
            "POSITION": 0,
            "TEXCOORD_0": 2
          },
          "indices": 3,
          "material": 0,
          "mode": 4
        }
      ]
    },
    {
      "name": "Object_1",
      "primitives": [
        {
          "attributes": {
            "NORMAL": 5,
            "POSITION": 4,
            "TEXCOORD_0": 6
          },
          "indices": 7,
          "material": 0,
          "mode": 4
        }
      ]
    },
    {
      "name": "Object_2",
      "primitives": [
        {
          "attributes": {
            "NORMAL": 9,
            "POSITION": 8,
            "TEXCOORD_0": 10
          },
          "indices": 11,
          "material": 1,
          "mode": 4
        }
      ]
    },
    {
      "name": "Object_3",
      "primitives": [
        {
          "attributes": {
            "NORMAL": 13,
            "POSITION": 12,
            "TEXCOORD_0": 14
          },
          "indices": 15,
          "material": 2,
          "mode": 4
        }
      ]
    },
    {
      "name": "Object_4",
      "primitives": [
        {
          "attributes": {
            "NORMAL": 17,
            "POSITION": 16,
            "TEXCOORD_0": 18
          },
          "indices": 19,
          "material": 3,
          "mode": 4
        }
      ]
    },
    {
      "name": "Object_5",
      "primitives": [
        {
          "attributes": {
            "NORMAL": 21,
            "POSITION": 20,
            "TEXCOORD_0": 22
          },
          "indices": 23,
          "material": 4,
          "mode": 4
        }
      ]
    },
    {
      "name": "Object_6",
      "primitives": [
        {
          "attributes": {
            "NORMAL": 25,
            "POSITION": 24,
            "TEXCOORD_0": 26
          },
          "indices": 27,
          "material": 5,
          "mode": 4
        }
      ]
    },
    {
      "name": "Object_7",
      "primitives": [
        {
          "attributes": {
            "NORMAL": 29,
            "POSITION": 28,
            "TEXCOORD_0": 30
          },
          "indices": 31,
          "material": 5,
          "mode": 4
        }
      ]
    },
    {
      "name": "Object_8",
      "primitives": [
        {
          "attributes": {
            "NORMAL": 33,
            "POSITION": 32,
            "TEXCOORD_0": 34
          },
          "indices": 35,
          "material": 5,
          "mode": 4
        }
      ]
    },
    {
      "name": "Object_9",
      "primitives": [
        {
          "attributes": {
            "NORMAL": 37,
            "POSITION": 36,
            "TEXCOORD_0": 38
          },
          "indices": 39,
          "material": 6,
          "mode": 4
        }
      ]
    },
    {
      "name": "Object_10",
      "primitives": [
        {
          "attributes": {
            "NORMAL": 41,
            "POSITION": 40,
            "TEXCOORD_0": 42
          },
          "indices": 43,
          "material": 7,
          "mode": 4
        }
      ]
    }
  ],
  "nodes": [
    {
      "children": [
        1
      ],
      "matrix": [
        1.0,
        0.0,
        0.0,
        0.0,
        0.0,
        2.220446049250313e-16,
        -1.0,
        0.0,
        0.0,
        1.0,
        2.220446049250313e-16,
        0.0,
        0.0,
        0.0,
        0.0,
        1.0
      ],
      "name": "Sketchfab_model"
    },
    {
      "children": [
        2,
        3,
        4,
        5,
        6,
        7,
        8,
        9,
        10,
        11,
        12
      ],
      "name": "fixobj.obj.cleaner.materialmerger.gles"
    },
    {
      "mesh": 0,
      "name": "Object_2"
    },
    {
      "mesh": 1,
      "name": "Object_3"
    },
    {
      "mesh": 2,
      "name": "Object_4"
    },
    {
      "mesh": 3,
      "name": "Object_5"
    },
    {
      "mesh": 4,
      "name": "Object_6"
    },
    {
      "mesh": 5,
      "name": "Object_7"
    },
    {
      "mesh": 6,
      "name": "Object_8"
    },
    {
      "mesh": 7,
      "name": "Object_9"
    },
    {
      "mesh": 8,
      "name": "Object_10"
    },
    {
      "mesh": 9,
      "name": "Object_11"
    },
    {
      "mesh": 10,
      "name": "Object_12"
    }
  ],
  "samplers": [
    {
      "magFilter": 9729,
      "minFilter": 9987,
      "wrapS": 10497,
      "wrapT": 10497
    }
  ],
  "scene": 0,
  "scenes": [
    {
      "name": "Sketchfab_Scene",
      "nodes": [
        0
      ]
    }
  ],
  "textures": [
    {
      "sampler": 0,
      "source": 0
    },
    {
      "sampler": 0,
      "source": 1
    },
    {
      "sampler": 0,
      "source": 2
    },
    {
      "sampler": 0,
      "source": 3
    },
    {
      "sampler": 0,
      "source": 4
    },
    {
      "sampler": 0,
      "source": 5
    },
    {
      "sampler": 0,
      "source": 6
    },
    {
      "sampler": 0,
      "source": 7
    }
  ]
}
